<svg width="25" height="24" viewBox="0 0 25 24" fill="none" xmlns="http://www.w3.org/2000/svg">
<g opacity="0.8">
<path fill-rule="evenodd" clip-rule="evenodd" d="M12.5 1C18.5654 1 23.5 5.9346 23.5 12C23.5 18.0654 18.5654 23 12.5 23C6.4346 23 1.5 18.0654 1.5 12C1.5 5.9346 6.4346 1 12.5 1ZM19.364 17.5C18.5406 18.5296 17.4962 19.3608 16.308 19.932C15.1198 20.5032 13.8183 20.7997 12.5 20.7997C11.1817 20.7997 9.8802 20.5032 8.69202 19.932C7.50384 19.3608 6.45939 18.5296 5.636 17.5C6.45939 16.4704 7.50384 15.6392 8.69202 15.068C9.8802 14.4968 11.1817 14.2003 12.5 14.2003C13.8183 14.2003 15.1198 14.4968 16.308 15.068C17.4962 15.6392 18.5406 16.4704 19.364 17.5ZM12.5 12C12.9334 12 13.3625 11.9146 13.7629 11.7488C14.1632 11.583 14.527 11.3399 14.8335 11.0335C15.1399 10.727 15.383 10.3632 15.5488 9.96286C15.7146 9.56248 15.8 9.13336 15.8 8.7C15.8 8.26664 15.7146 7.83752 15.5488 7.43714C15.383 7.03677 15.1399 6.67298 14.8335 6.36655C14.527 6.06011 14.1632 5.81704 13.7629 5.6512C13.3625 5.48536 12.9334 5.4 12.5 5.4C11.6248 5.4 10.7854 5.74768 10.1665 6.36655C9.54768 6.98542 9.2 7.82479 9.2 8.7C9.2 9.57521 9.54768 10.4146 10.1665 11.0335C10.7854 11.6523 11.6248 12 12.5 12Z" fill="#5A73CD"/>
</g>
</svg>
