<svg width="55" height="36" viewBox="0 0 55 36" fill="none" xmlns="http://www.w3.org/2000/svg">
<path opacity="0.3" d="M25.3865 12.7348L25.3867 12.7348V12.7217C25.3867 11.0304 25.049 9.46305 24.3676 8.02723C23.7582 6.54209 22.9101 5.25281 21.8223 4.165C20.7345 3.07719 19.4452 2.22909 17.9601 1.61968C16.5243 0.938354 14.957 0.600586 13.2656 0.600586C11.633 0.600586 10.0668 0.940849 8.57148 1.61972C7.14847 2.23031 5.89242 3.07918 4.8066 4.165C3.71973 5.25187 2.84006 6.53946 2.16591 8.02259L2.1658 8.02254L2.16152 8.03253C1.54649 9.4676 1.24219 11.0328 1.24219 12.7217C1.24219 15.7599 2.15692 18.3831 3.99676 20.5636L3.99671 20.5637L4.00187 20.5696C5.71302 22.5343 7.87054 23.8184 10.4574 24.4212C9.74172 26.4234 9.00643 27.9948 8.25656 29.1484L8.25654 29.1484L8.25395 29.1525C7.80891 29.8518 7.36809 30.4491 6.93231 30.9471L6.49638 31.4453L7.09481 31.7284L14.3214 35.1463L14.6397 35.2969L14.8887 35.0479C16.5262 33.4104 17.9704 31.8026 19.2202 30.2245C20.5425 28.637 21.6366 26.9799 22.5003 25.2532C23.4303 23.459 24.1276 21.5654 24.5924 19.5736L24.5932 19.5701C25.0573 17.5145 25.3207 15.2353 25.3865 12.7348ZM39.0707 24.4213C38.355 26.4235 37.6197 27.9948 36.8698 29.1484L36.8672 29.1525C36.4222 29.8518 35.9814 30.4491 35.5456 30.9471L35.112 31.4426L35.7057 31.7272L42.8346 35.1452L43.1539 35.2983L43.4043 35.0479C45.1082 33.344 46.6183 31.6702 47.9334 30.0262C49.2536 28.376 50.3464 26.6886 51.2094 24.9638C52.1409 23.2324 52.8386 21.37 53.3033 19.3783C53.7693 17.3813 54 15.1614 54 12.7217C54 11.0303 53.6622 9.46302 52.9809 8.02719C52.3715 6.54207 51.5234 5.2528 50.4356 4.165C49.3478 3.07719 48.0585 2.22909 46.5734 1.61968C45.1375 0.938352 43.5702 0.600586 41.8789 0.600586C40.2477 0.600586 38.6827 0.940276 37.1885 1.618C35.7017 2.22753 34.411 3.07619 33.3222 4.165C32.2354 5.25187 31.3557 6.53946 30.6815 8.02259L30.6814 8.02254L30.6771 8.03253C30.0621 9.4676 29.7578 11.0328 29.7578 12.7217C29.7578 15.7599 30.6725 18.3831 32.5124 20.5636L32.5178 20.5701L32.5235 20.5764C34.2937 22.5362 36.4808 23.8189 39.0707 24.4213Z" stroke="#5A73CD"/>
</svg>
