<svg width="25" height="24" viewBox="0 0 25 24" fill="none" xmlns="http://www.w3.org/2000/svg">
<g opacity="0.8">
<path d="M23.4578 6.12915L15.7413 13.7819C14.8809 14.633 13.7153 15.111 12.5 15.111C11.2847 15.111 10.1191 14.633 9.25867 13.7819L1.54217 6.12915C1.52933 6.27279 1.5 6.40279 1.5 6.54551V17.4546C1.50146 18.6597 1.98481 19.815 2.84403 20.6671C3.70326 21.5193 4.8682 21.9986 6.08333 22.0001H18.9167C20.1318 21.9986 21.2967 21.5193 22.156 20.6671C23.0152 19.815 23.4985 18.6597 23.5 17.4546V6.54551C23.5 6.40279 23.4707 6.27279 23.4578 6.12915Z" fill="#5A73CD"/>
<path d="M14.4452 12.4964L22.818 4.19182C22.4124 3.52484 21.8403 2.97276 21.157 2.58885C20.4736 2.20493 19.7021 2.00213 18.9167 2H6.08334C5.29796 2.00213 4.52638 2.20493 3.84303 2.58885C3.15968 2.97276 2.58761 3.52484 2.18201 4.19182L10.5548 12.4964C11.0714 13.0066 11.7709 13.2932 12.5 13.2932C13.2291 13.2932 13.9286 13.0066 14.4452 12.4964Z" fill="#5A73CD"/>
</g>
</svg>
