<svg width="25" height="25" viewBox="0 0 25 25" fill="none" xmlns="http://www.w3.org/2000/svg">
<path d="M12.5 6.4748C16.29 6.4748 19.67 8.6048 21.32 11.9748C20.73 13.1948 19.9 14.2448 18.91 15.0948L20.32 16.5048C21.71 15.2748 22.81 13.7348 23.5 11.9748C21.77 7.58481 17.5 4.4748 12.5 4.4748C11.23 4.4748 10.01 4.6748 8.86 5.0448L10.51 6.6948C11.16 6.5648 11.82 6.4748 12.5 6.4748ZM11.43 7.6148L13.5 9.6848C14.07 9.9348 14.53 10.3948 14.78 10.9648L16.85 13.0348C16.93 12.6948 16.99 12.3348 16.99 11.9648C17 9.4848 14.98 7.4748 12.5 7.4748C12.13 7.4748 11.78 7.5248 11.43 7.6148ZM2.51 4.3448L5.19 7.02481C3.56 8.3048 2.27 10.0048 1.5 11.9748C3.23 16.3648 7.5 19.4748 12.5 19.4748C14.02 19.4748 15.48 19.1848 16.82 18.6548L20.24 22.0748L21.65 20.6648L3.92 2.9248L2.51 4.3448ZM10.01 11.8448L12.62 14.4548C12.58 14.4648 12.54 14.4748 12.5 14.4748C11.12 14.4748 10 13.3548 10 11.9748C10 11.9248 10.01 11.8948 10.01 11.8448ZM6.61 8.4448L8.36 10.1948C8.13 10.7448 8 11.3448 8 11.9748C8 14.4548 10.02 16.4748 12.5 16.4748C13.13 16.4748 13.73 16.3448 14.27 16.1148L15.25 17.0948C14.37 17.3348 13.45 17.4748 12.5 17.4748C8.71 17.4748 5.33 15.3448 3.68 11.9748C4.38 10.5448 5.4 9.3648 6.61 8.4448Z" fill="#5A73CD" fill-opacity="0.5"/>
</svg>
