<svg width="25" height="24" viewBox="0 0 25 24" fill="none" xmlns="http://www.w3.org/2000/svg">
<g opacity="0.8">
<path d="M23.4978 12.0648C23.4978 6.02562 18.6021 1.12988 12.5629 1.12988C6.52366 1.12988 1.62793 6.02562 1.62793 12.0648C1.62793 18.104 6.52366 22.9997 12.5629 22.9997C18.6021 22.9997 23.4978 18.104 23.4978 12.0648Z" fill="#5A73CD"/>
<path d="M15.1527 6.31006H9.97299C9.13348 6.31006 8.32836 6.64355 7.73473 7.23717C7.14111 7.8308 6.80762 8.63592 6.80762 9.47543V14.6551C6.80762 15.4946 7.14111 16.2998 7.73473 16.8934C8.32836 17.487 9.13348 17.8205 9.97299 17.8205H15.1527C15.9922 17.8205 16.7973 17.487 17.391 16.8934C17.9846 16.2998 18.3181 15.4946 18.3181 14.6551V9.47543C18.3181 8.63592 17.9846 7.8308 17.391 7.23717C16.7973 6.64355 15.9922 6.31006 15.1527 6.31006ZM17.3109 14.2005C17.3109 14.8934 17.0356 15.558 16.5456 16.0481C16.0556 16.5381 15.391 16.8133 14.698 16.8133H10.4277C9.73468 16.8133 9.07008 16.5381 8.58007 16.0481C8.09007 15.558 7.81478 14.8934 7.81478 14.2005V9.9301C7.81478 9.23712 8.09007 8.57252 8.58007 8.08252C9.07008 7.59251 9.73468 7.31722 10.4277 7.31722H14.698C15.391 7.31722 16.0556 7.59251 16.5456 8.08252C17.0356 8.57252 17.3109 9.23712 17.3109 9.9301V14.2005Z" fill="white"/>
<path d="M14.6622 9.98759L14.6349 9.96025L14.6118 9.93723C14.0678 9.3951 13.331 9.09085 12.563 9.09121C12.1751 9.09385 11.7916 9.17288 11.4343 9.32378C11.077 9.47469 10.753 9.69451 10.4807 9.97069C10.2084 10.2469 9.99313 10.574 9.84729 10.9334C9.70145 11.2928 9.62785 11.6774 9.63069 12.0652C9.63011 12.8523 9.94037 13.6078 10.494 14.1673C10.7651 14.4418 11.0883 14.6595 11.4445 14.8077C11.8007 14.9559 12.1829 15.0317 12.5687 15.0306C13.1475 15.0185 13.7102 14.8382 14.1882 14.5117C14.6663 14.1853 15.039 13.7268 15.2609 13.1922C15.4829 12.6575 15.5444 12.0699 15.4381 11.5008C15.3318 10.9318 15.0622 10.406 14.6622 9.98759ZM12.563 14.0162C12.176 14.0217 11.7961 13.9119 11.4717 13.7008C11.1473 13.4898 10.893 13.187 10.7411 12.831C10.5892 12.475 10.5467 12.0819 10.6188 11.7016C10.691 11.3214 10.8746 10.9712 11.1464 10.6956C11.4181 10.42 11.7657 10.2315 12.1449 10.1539C12.524 10.0764 12.9177 10.1134 13.2758 10.2602C13.6339 10.4071 13.9403 10.6571 14.1559 10.9785C14.3715 11.2999 14.4866 11.6782 14.4867 12.0652C14.4886 12.3197 14.4403 12.572 14.3446 12.8078C14.249 13.0436 14.1078 13.2582 13.9291 13.4394C13.7505 13.6206 13.5379 13.7648 13.3035 13.8637C13.069 13.9627 12.8174 14.0146 12.563 14.0162ZM16.3657 8.95453C16.3665 9.04685 16.349 9.13842 16.3144 9.224C16.2797 9.30957 16.2285 9.38746 16.1637 9.45321C16.0988 9.51897 16.0217 9.57129 15.9366 9.60719C15.8516 9.64309 15.7603 9.66185 15.6679 9.66242C15.5764 9.66238 15.4857 9.64417 15.4013 9.60885C15.3168 9.57353 15.2402 9.52181 15.1759 9.45667C15.0784 9.35777 15.0121 9.23244 14.9852 9.09621C14.9583 8.95999 14.9719 8.81886 15.0245 8.69032C15.077 8.56179 15.1661 8.45151 15.2808 8.37315C15.3954 8.29479 15.5305 8.2518 15.6694 8.24951C15.8319 8.24948 15.9892 8.30651 16.114 8.41066L16.1283 8.42505C16.1515 8.44394 16.1728 8.46515 16.1917 8.48835L16.2075 8.50562C16.3105 8.6325 16.3664 8.79111 16.3657 8.95453Z" fill="white"/>
</g>
</svg>
