<svg width="25" height="24" viewBox="0 0 25 24" fill="none" xmlns="http://www.w3.org/2000/svg">
<g opacity="0.8">
<path d="M12.5 1C6.43442 1 1.5 5.93442 1.5 12C1.5 18.0656 6.43442 23 12.5 23C18.5656 23 23.5 18.0656 23.5 12C23.5 5.93442 18.5656 1 12.5 1ZM9.61892 17.5C9.27925 17.5031 8.94233 17.4388 8.62765 17.3109C8.31297 17.183 8.02677 16.994 7.78558 16.7548L7.30708 16.2048C7.11072 16.0083 7.00041 15.7419 7.00041 15.4641C7.00041 15.1863 7.11072 14.9199 7.30708 14.7234L8.50058 13.8068C8.69706 13.6104 8.96347 13.5001 9.24125 13.5001C9.51903 13.5001 9.78544 13.6104 9.98192 13.8068L10.9618 14.5868C12.8602 13.8617 14.2609 12.5188 15.0868 10.4618L14.3068 9.48192C14.1104 9.28544 14.0001 9.01903 14.0001 8.74125C14.0001 8.46347 14.1104 8.19706 14.3068 8.00058L15.2234 6.80708C15.4199 6.61072 15.6863 6.50041 15.9641 6.50041C16.2419 6.50041 16.5083 6.61072 16.7048 6.80708L17.2548 7.28558C17.7607 7.79067 18 8.45617 18 9.11892C18 12.7856 13.0234 17.5 9.61892 17.5Z" fill="#5A73CD"/>
</g>
</svg>
