<svg width="25" height="24" viewBox="0 0 25 24" fill="none" xmlns="http://www.w3.org/2000/svg">
<g opacity="0.8">
<path d="M12.5 23C18.5751 23 23.5 18.0751 23.5 12C23.5 5.92487 18.5751 1 12.5 1C6.42487 1 1.5 5.92487 1.5 12C1.5 18.0751 6.42487 23 12.5 23Z" fill="#5A73CD"/>
<path fill-rule="evenodd" clip-rule="evenodd" d="M6.4792 11.884C9.68591 10.4868 11.8243 9.56575 12.8941 9.12077C15.9489 7.85018 16.5837 7.62945 16.9974 7.62215C17.0884 7.62056 17.2919 7.64312 17.4237 7.75006C17.6192 7.90871 17.6203 8.25306 17.5986 8.48096C17.433 10.2203 16.7168 14.4413 16.3523 16.3894C16.1981 17.2137 15.8945 17.4901 15.6006 17.5172C14.9618 17.5759 14.4768 17.095 13.858 16.6895C12.8899 16.0548 12.343 15.6598 11.4032 15.0405C10.3172 14.3248 11.0212 13.9315 11.6401 13.2886C11.8021 13.1204 14.6166 10.5604 14.6711 10.3281C14.6779 10.2991 14.6842 10.1908 14.6199 10.1336C14.5556 10.0765 14.4607 10.096 14.3922 10.1115C14.2951 10.1336 12.7485 11.1559 9.75234 13.1783C9.31333 13.4798 8.9157 13.6266 8.55944 13.619C8.16666 13.6105 7.41119 13.3969 6.84954 13.2143C6.16067 12.9904 5.61316 12.872 5.66086 12.4917C5.68569 12.2936 5.95846 12.091 6.4792 11.884Z" fill="white"/>
</g>
</svg>
