<svg width="25" height="25" viewBox="0 0 25 25" fill="none" xmlns="http://www.w3.org/2000/svg">
<path d="M12.5 1.10059C10.3244 1.10059 8.19767 1.74572 6.38873 2.95442C4.57979 4.16312 3.16989 5.88108 2.33733 7.89107C1.50477 9.90105 1.28693 12.1128 1.71137 14.2466C2.1358 16.3804 3.18345 18.3404 4.72183 19.8788C6.26021 21.4171 8.22022 22.4648 10.354 22.8892C12.4878 23.3137 14.6995 23.0958 16.7095 22.2633C18.7195 21.4307 20.4375 20.0208 21.6462 18.2119C22.8549 16.4029 23.5 14.2762 23.5 12.1006C23.4968 9.18417 22.3369 6.38811 20.2747 4.32589C18.2125 2.26368 15.4164 1.10374 12.5 1.10059ZM13.4167 11.9897C13.4168 12.1451 13.3774 12.2979 13.3022 12.4339C13.227 12.5699 13.1184 12.6845 12.9868 12.767L9.46675 14.967C9.36443 15.0309 9.25052 15.0741 9.13153 15.094C9.01253 15.1139 8.89078 15.1101 8.77323 15.083C8.65568 15.0558 8.54463 15.0058 8.44642 14.9357C8.34821 14.8656 8.26476 14.7769 8.20084 14.6746C8.13692 14.5723 8.09377 14.4584 8.07388 14.3394C8.05398 14.2204 8.05771 14.0986 8.08487 13.9811C8.11202 13.8635 8.16206 13.7525 8.23213 13.6542C8.3022 13.556 8.39093 13.4726 8.49325 13.4087L11.5833 11.4818V7.51725C11.5833 7.27414 11.6799 7.04098 11.8518 6.86907C12.0237 6.69716 12.2569 6.60058 12.5 6.60058C12.7431 6.60058 12.9763 6.69716 13.1482 6.86907C13.3201 7.04098 13.4167 7.27414 13.4167 7.51725V11.9897Z" fill="#5A73CD" fill-opacity="0.6"/>
</svg>
