<svg width="25" height="24" viewBox="0 0 25 24" fill="none" xmlns="http://www.w3.org/2000/svg">
<path d="M23.4578 6.12909L15.7413 13.7818C14.8809 14.633 13.7153 15.1109 12.5 15.1109C11.2847 15.1109 10.1191 14.633 9.25867 13.7818L1.54217 6.12909C1.52933 6.27273 1.5 6.40273 1.5 6.54545V17.4545C1.50146 18.6596 1.98481 19.8149 2.84403 20.6671C3.70326 21.5192 4.8682 21.9986 6.08333 22H18.9167C20.1318 21.9986 21.2967 21.5192 22.156 20.6671C23.0152 19.8149 23.4985 18.6596 23.5 17.4545V6.54545C23.5 6.40273 23.4707 6.27273 23.4578 6.12909Z" fill="#5A73CD" fill-opacity="0.6"/>
<path d="M14.4453 12.4964L22.8181 4.19182C22.4125 3.52484 21.8405 2.97276 21.1571 2.58885C20.4738 2.20493 19.7022 2.00213 18.9168 2H6.08346C5.29808 2.00213 4.5265 2.20493 3.84315 2.58885C3.1598 2.97276 2.58773 3.52484 2.18213 4.19182L10.555 12.4964C11.0716 13.0066 11.771 13.2932 12.5001 13.2932C13.2293 13.2932 13.9287 13.0066 14.4453 12.4964Z" fill="#5A73CD" fill-opacity="0.6"/>
</svg>
