<svg width="25" height="25" viewBox="0 0 25 25" fill="none" xmlns="http://www.w3.org/2000/svg">
<path d="M12.6683 1.14258C10.2427 1.14525 7.91727 2.10991 6.20206 3.82495C4.48685 5.53999 3.52195 7.86535 3.51904 10.2909C3.51904 12.6467 5.34321 16.3336 8.94112 21.2487C9.36944 21.8355 9.93025 22.3129 10.5779 22.642C11.2256 22.9711 11.9418 23.1426 12.6683 23.1426C13.3948 23.1426 14.111 22.9711 14.7586 22.642C15.4063 22.3129 15.9671 21.8355 16.3954 21.2487C19.9933 16.3336 21.8175 12.6467 21.8175 10.2909C21.8146 7.86535 20.8497 5.53999 19.1345 3.82495C17.4193 2.10991 15.0938 1.14525 12.6683 1.14258ZM12.6683 13.9374C11.9431 13.9374 11.2342 13.7223 10.6312 13.3194C10.0282 12.9165 9.55825 12.3439 9.28072 11.6739C9.0032 11.0039 8.93059 10.2667 9.07207 9.5554C9.21355 8.84414 9.56277 8.1908 10.0756 7.67801C10.5883 7.16522 11.2417 6.816 11.9529 6.67452C12.6642 6.53304 13.4015 6.60566 14.0714 6.88318C14.7414 7.1607 15.3141 7.63066 15.717 8.23364C16.1199 8.83662 16.3349 9.54553 16.3349 10.2707C16.3349 11.2432 15.9486 12.1758 15.261 12.8635C14.5734 13.5511 13.6407 13.9374 12.6683 13.9374Z" fill="#5A73CD" fill-opacity="0.6"/>
</svg>
