<svg width="24" height="24" viewBox="0 0 24 24" fill="none" xmlns="http://www.w3.org/2000/svg">
<path d="M12 1C5.93442 1 1 5.93442 1 12C1 18.0656 5.93442 23 12 23C18.0656 23 23 18.0656 23 12C23 5.93442 18.0656 1 12 1ZM9.11892 17.5C8.77925 17.5031 8.44233 17.4388 8.12765 17.3109C7.81297 17.183 7.52677 16.994 7.28558 16.7548L6.80708 16.2048C6.61072 16.0083 6.50041 15.7419 6.50041 15.4641C6.50041 15.1863 6.61072 14.9199 6.80708 14.7234L8.00058 13.8068C8.19706 13.6104 8.46347 13.5001 8.74125 13.5001C9.01903 13.5001 9.28544 13.6104 9.48192 13.8068L10.4618 14.5868C12.3602 13.8617 13.7609 12.5188 14.5868 10.4618L13.8068 9.48192C13.6104 9.28544 13.5001 9.01903 13.5001 8.74125C13.5001 8.46347 13.6104 8.19706 13.8068 8.00058L14.7234 6.80708C14.9199 6.61072 15.1863 6.50041 15.4641 6.50041C15.7419 6.50041 16.0083 6.61072 16.2048 6.80708L16.7548 7.28558C17.2607 7.79067 17.5 8.45617 17.5 9.11892C17.5 12.7856 12.5234 17.5 9.11892 17.5Z" fill="#5A73CD" fill-opacity="0.6"/>
</svg>
