<svg width="40" height="41" viewBox="0 0 40 41" fill="none" xmlns="http://www.w3.org/2000/svg">
<g clip-path="url(#clip0_43_4446)">
<path d="M33.24 4.50393L20 0.115601L6.76 4.50393C5.76245 4.83463 4.89447 5.47123 4.27934 6.32332C3.6642 7.17542 3.33319 8.19967 3.33333 9.2506V20.1006C3.33333 32.6406 18.6667 39.5656 19.3233 39.8539L19.9133 40.1156L20.5267 39.9123C21.1867 39.6923 36.6667 34.3956 36.6667 20.1006V9.2506C36.6668 8.19967 36.3358 7.17542 35.7207 6.32332C35.1055 5.47123 34.2375 4.83463 33.24 4.50393ZM20.74 23.4156C20.4486 23.7089 20.1019 23.9414 19.72 24.0996C19.338 24.2579 18.9284 24.3386 18.515 24.3373H18.46C18.0381 24.3308 17.622 24.2389 17.2367 24.067C16.8514 23.8951 16.505 23.6469 16.2183 23.3373L12.375 19.3373L14.78 17.0339L18.52 20.9339L27.155 12.2989L29.5117 14.6556L20.74 23.4156Z" fill="#5A73CD"/>
</g>
<defs>
<clipPath id="clip0_43_4446">
<rect width="40" height="40" fill="white" transform="translate(0 0.100586)"/>
</clipPath>
</defs>
</svg>
