<svg width="41" height="41" viewBox="0 0 41 41" fill="none" xmlns="http://www.w3.org/2000/svg">
<g clip-path="url(#clip0_43_4449)">
<path d="M38.0534 18.5106C37.4845 17.0913 36.6773 15.7797 35.6667 14.6323V8.4406C35.6677 7.93951 35.5555 7.44467 35.3385 6.99299C35.1216 6.5413 34.8054 6.14444 34.4137 5.832C34.0219 5.51956 33.5647 5.2996 33.076 5.18854C32.5874 5.07749 32.08 5.07819 31.5917 5.1906C28.55 5.9156 26.2684 7.63894 25.0467 10.1006H16.1084C14.072 10.0946 12.0591 10.5344 10.2109 11.3893C8.36266 12.2442 6.72402 13.4933 5.41002 15.0489C3.41002 14.7573 3.65169 11.7639 5.66502 11.7673C7.84335 11.7589 7.84502 8.44227 5.66502 8.43394C0.356686 8.41727 -1.21665 15.7773 3.55169 17.9489C0.620019 23.9823 3.17002 31.7523 8.99835 34.9689V35.1006C9.00169 40.6856 16.8984 41.9639 18.7134 36.7673H22.6184C24.4334 41.9673 32.33 40.6823 32.3334 35.1006V34.9473C34.9235 33.4522 36.9375 31.1319 38.0534 28.3573C39.4217 28.0656 40.6667 26.9439 40.6667 25.1006V21.7673C40.6667 19.9239 39.42 18.8023 38.0534 18.5106ZM30.6667 21.7673C28.4867 21.7573 28.4867 18.4439 30.6667 18.4339C32.8467 18.4439 32.8467 21.7573 30.6667 21.7673ZM10.7534 7.6206C9.81669 -1.69773 23.6534 -2.5994 24 6.76727H16.11C14.2417 6.76727 12.4434 7.0756 10.7534 7.6206Z" fill="#5A73CD"/>
</g>
<defs>
<clipPath id="clip0_43_4449">
<rect width="40" height="40" fill="white" transform="translate(0.666687 0.100586)"/>
</clipPath>
</defs>
</svg>
