<svg width="41" height="41" viewBox="0 0 41 41" fill="none" xmlns="http://www.w3.org/2000/svg">
<g clip-path="url(#clip0_43_4440)">
<path d="M30.0483 18.0372C29.8737 18.0375 29.7015 17.9966 29.5456 17.9178C29.3898 17.839 29.2548 17.7246 29.1515 17.5838C29.0482 17.443 28.9796 17.2798 28.9513 17.1075C28.9229 16.9352 28.9356 16.7587 28.9883 16.5922L30.0333 13.2405L27.3916 11.0905C27.2174 10.9436 27.0927 10.7466 27.0344 10.5263C26.9761 10.306 26.987 10.0731 27.0656 9.85917C27.1443 9.64528 27.2868 9.46078 27.474 9.33072C27.6611 9.20067 27.8837 9.13136 28.1116 9.13222H31.4466L32.6266 5.82055C32.7051 5.60743 32.847 5.4235 33.0333 5.29358C33.2195 5.16365 33.4412 5.09399 33.6683 5.09399C33.8954 5.09399 34.117 5.16365 34.3033 5.29358C34.4896 5.4235 34.6315 5.60743 34.7099 5.82055L35.8899 9.13222H39.2249C39.4532 9.13157 39.6761 9.2013 39.8633 9.33191C40.0504 9.46252 40.1928 9.64765 40.271 9.86209C40.3491 10.0765 40.3593 10.3099 40.3 10.5303C40.2408 10.7507 40.1151 10.9475 39.9399 11.0939L37.3116 13.2355L38.3983 16.5472C38.472 16.7661 38.4755 17.0025 38.4085 17.2236C38.3414 17.4446 38.2071 17.6392 38.0242 17.7802C37.8413 17.9213 37.619 18.0018 37.3882 18.0105C37.1574 18.0192 36.9296 17.9557 36.7366 17.8289L33.6766 15.8355L30.6683 17.8489C30.4853 17.9714 30.2685 18.037 30.0483 18.0372ZM16.7149 13.0372C16.5403 13.0375 16.3681 12.9966 16.2123 12.9178C16.0565 12.839 15.9215 12.7246 15.8182 12.5838C15.7149 12.443 15.6463 12.2798 15.6179 12.1075C15.5896 11.9352 15.6023 11.7587 15.6549 11.5922L16.6999 8.24055L14.0583 6.09055C13.8841 5.94358 13.7594 5.74657 13.7011 5.52627C13.6428 5.30597 13.6537 5.07306 13.7323 4.85917C13.8109 4.64528 13.9535 4.46078 14.1406 4.33072C14.3278 4.20067 14.5504 4.13136 14.7783 4.13222H18.1133L19.2933 0.820549C19.3717 0.607427 19.5137 0.423497 19.6999 0.293575C19.8862 0.163654 20.1078 0.0939941 20.3349 0.0939941C20.5621 0.0939941 20.7837 0.163654 20.97 0.293575C21.1562 0.423497 21.2982 0.607427 21.3766 0.820549L22.5566 4.13222H25.8916C26.1199 4.13157 26.3427 4.2013 26.5299 4.33191C26.7171 4.46252 26.8595 4.64765 26.9376 4.86209C27.0158 5.07654 27.0259 5.30986 26.9667 5.53028C26.9075 5.7507 26.7817 5.94751 26.6066 6.09388L23.9783 8.23555L25.0649 11.5472C25.1386 11.7661 25.1422 12.0025 25.0751 12.2236C25.0081 12.4446 24.8737 12.6392 24.6909 12.7802C24.508 12.9213 24.2857 13.0018 24.0549 13.0105C23.8241 13.0192 23.5963 12.9557 23.4033 12.8289L20.3433 10.8355L17.3349 12.8489C17.152 12.9714 16.9351 13.037 16.7149 13.0372ZM3.38161 18.0372C3.20701 18.0375 3.0348 17.9966 2.87898 17.9178C2.72316 17.839 2.58812 17.7246 2.48484 17.5838C2.38157 17.443 2.31296 17.2798 2.2846 17.1075C2.25623 16.9352 2.26892 16.7587 2.32161 16.5922L3.36661 13.2405L0.724947 11.0922C0.550778 10.9453 0.426065 10.7482 0.367744 10.5279C0.309424 10.3076 0.320323 10.0747 0.398962 9.86084C0.477601 9.64695 0.620168 9.46245 0.8073 9.33239C0.994432 9.20233 1.21706 9.13303 1.44495 9.13388H4.77995L5.95995 5.82222C6.0384 5.60909 6.18033 5.42516 6.3666 5.29524C6.55287 5.16532 6.77451 5.09566 7.00161 5.09566C7.22872 5.09566 7.45036 5.16532 7.63662 5.29524C7.82289 5.42516 7.96483 5.60909 8.04328 5.82222L9.22328 9.13388H12.5583C12.7865 9.13324 13.0094 9.20297 13.1966 9.33358C13.3838 9.46418 13.5261 9.64932 13.6043 9.86376C13.6825 10.0782 13.6926 10.3115 13.6334 10.5319C13.5741 10.7524 13.4484 10.9492 13.2733 11.0955L10.6449 13.2372L11.7316 16.5489C11.8053 16.7678 11.8088 17.0042 11.7418 17.2252C11.6747 17.4462 11.5404 17.6408 11.3575 17.7819C11.1746 17.9229 10.9523 18.0034 10.7215 18.0122C10.4907 18.0209 10.263 17.9574 10.0699 17.8305L7.00995 15.8372L4.00161 17.8505C3.81866 17.9731 3.60348 18.0386 3.38328 18.0389L3.38161 18.0372ZM28.6649 23.4339H21.6933L22.6599 17.9922C22.7549 17.4355 22.7083 17.1272 22.6716 16.9939C22.3583 15.8439 21.4216 15.1005 20.2849 15.1005C19.9299 15.1005 19.5716 15.1739 19.2183 15.3205C18.7949 15.4956 18.3799 15.9322 18.0816 16.5189L14.4266 23.4339H11.9999C10.6739 23.4339 9.4021 23.9607 8.46441 24.8983C7.52673 25.836 6.99995 27.1078 6.99995 28.4339V35.1006C6.99995 36.4266 7.52673 37.6984 8.46441 38.6361C9.4021 39.5738 10.6739 40.1006 11.9999 40.1006V28.4339C11.9999 27.9919 12.1755 27.5679 12.4881 27.2554C12.8007 26.9428 13.2246 26.7672 13.6666 26.7672C14.1086 26.7672 14.5326 26.9428 14.8451 27.2554C15.1577 27.5679 15.3333 27.9919 15.3333 28.4339V40.1006H25.9649C27.5061 40.1004 28.9997 39.5663 30.1914 38.589C31.3832 37.6118 32.1995 36.2518 32.5016 34.7406L33.5666 29.4139C33.7116 28.6885 33.6938 27.94 33.5146 27.2223C33.3353 26.5046 32.9991 25.8356 32.53 25.2636C32.061 24.6916 31.4709 24.2307 30.8022 23.9143C30.1335 23.5979 29.403 23.4338 28.6633 23.4339H28.6649Z" fill="#5A73CD"/>
</g>
<defs>
<clipPath id="clip0_43_4440">
<rect width="40" height="40" fill="white" transform="translate(0.333282 0.100586)"/>
</clipPath>
</defs>
</svg>
