<svg width="93" height="68" viewBox="0 0 93 68" fill="none" xmlns="http://www.w3.org/2000/svg">
<path d="M92.1326 62.2873L81.2199 25.7258L73.3521 19.2181H58.8182C58.8182 19.2181 73.5332 13.4203 76.6441 10.3777L75.1298 5.30676C74.208 2.21349 71.4264 0.100586 68.2661 0.100586H44.63C41.8977 0.100586 39.4123 1.68948 38.1943 4.19115L30.8697 19.2349H16.6815C13.9656 19.2349 11.4802 20.8069 10.2622 23.3086L0.880176 42.5951C-0.304921 45.0461 1.42334 47.9196 4.08981 47.9196H16.9119L10.1964 61.7126C9.01126 64.1635 10.7395 67.037 13.406 67.037H31.1166C33.8325 67.037 36.3179 65.4651 37.5359 62.9634L44.8604 47.9027H60.8922L64.2335 61.4759C65.04 64.7382 67.904 67.037 71.1959 67.037H88.7255C91.0957 67.037 92.8239 64.6537 92.1326 62.2873Z" fill="#E20613"/>
<path d="M89.4333 53.2443L89.0218 51.8751C87.7709 47.717 87.2606 43.3729 87.2112 39.0288C87.1948 37.3553 86.7339 36.3242 86.7339 36.3242L84.5942 37.0511L81.2199 25.726L73.3522 19.2183H56.6456C54.3413 21.3143 52.1521 23.968 49.6338 27.2642C49.6338 35.3777 52.9093 42.6967 58.1764 47.9029H60.8593L61.5671 50.7764C66.0935 54.0387 71.6075 55.9488 77.5659 55.9488C81.8125 55.9488 85.8286 54.9853 89.4333 53.2443Z" fill="url(#paint0_radial_2033_3146)"/>
<path opacity="0.75" d="M5.50531 45.4854C13.2249 32.9939 25.6849 24.4916 39.725 21.9731C39.725 21.9393 39.725 21.9562 39.725 21.9224H17.7184C15.6774 21.9224 13.8175 23.1056 12.8957 24.9818L4.07332 43.1189C3.54661 44.2007 4.32022 45.4854 5.50531 45.4854Z" fill="url(#paint1_radial_2033_3146)"/>
<path opacity="0.75" d="M36.8445 16.9026C41.3051 9.68492 48.5144 4.7492 56.6455 3.29553C56.6455 3.27862 56.6455 3.27862 56.6455 3.26172H45.3377C43.2967 3.26172 41.4203 4.44495 40.515 6.32119L35.3632 16.8857H36.8445V16.9026Z" fill="url(#paint2_radial_2033_3146)"/>
<path d="M69.2208 47.3784C80.0384 47.3784 88.8078 38.3727 88.8078 27.2637C88.8078 16.1546 80.0384 7.14893 69.2208 7.14893C58.4032 7.14893 49.6338 16.1546 49.6338 27.2637C49.6338 38.3727 58.4032 47.3784 69.2208 47.3784Z" fill="white"/>
<path d="M60.3325 33.0445C59.8552 33.0445 59.3779 32.9769 58.9499 32.8247C56.5797 32.0303 54.4564 29.0384 55.3946 24.3563C55.6086 23.3421 55.9213 22.3279 56.3493 21.3644C58.6372 16.192 63.6903 12.8452 69.2207 12.8452C71.2288 12.8452 73.1875 13.2847 75.0146 14.1298C77.0062 15.0595 78.7509 16.4456 80.1171 18.1528C79.9195 18.1021 79.7056 18.0514 79.4916 18.0007C78.9813 17.8824 78.4546 17.8316 77.9115 17.8316C75.9528 17.8316 71.0478 18.6768 67.5583 26.5706C65.0071 32.4191 61.6493 33.0445 60.3325 33.0445Z" fill="url(#paint3_linear_2033_3146)"/>
<path d="M69.2208 41.6651C67.2127 41.6651 65.254 41.2256 63.427 40.3804C61.4353 39.4508 59.6906 38.0647 58.3245 36.3575C58.522 36.4082 58.736 36.4589 58.9499 36.5096C59.4602 36.6279 59.9869 36.6787 60.5301 36.6787C62.4888 36.6787 67.3937 35.8335 70.8832 27.9397C73.4509 22.1081 76.8087 21.4658 78.1255 21.4658C78.6028 21.4658 79.0801 21.5334 79.5081 21.6856C81.8783 22.48 84.0016 25.4719 83.0634 30.154C82.8494 31.1682 82.5366 32.1824 82.1087 33.1459C79.8208 38.3183 74.7677 41.6651 69.2208 41.6651Z" fill="#FFD700"/>
<path opacity="0.65" d="M79.0966 23.0042C78.8003 22.9028 78.4711 22.8521 78.1255 22.8521C77.0721 22.8521 74.3562 23.4098 72.1177 28.4977C71.7062 29.4443 71.2618 30.2894 70.8174 31.067C78.109 20.3842 85.2854 31.3543 74.3068 39.1805C77.1708 37.9127 79.541 35.597 80.8742 32.5714C81.2528 31.6924 81.5491 30.7796 81.7466 29.8669C82.5038 26.0129 80.9072 23.6127 79.0966 23.0042Z" fill="#FFF8C7"/>
<path opacity="0.35" d="M59.3614 31.5064C59.6577 31.6078 59.9869 31.6585 60.3325 31.6585C61.3859 31.6585 64.1018 31.1007 66.3403 26.0129C66.7518 25.0663 67.1962 24.2211 67.6406 23.4436C60.349 34.1264 53.1726 23.1562 64.1512 15.3301C61.2872 16.5978 58.917 18.9135 57.5838 21.9392C57.2052 22.8182 56.9089 23.7309 56.7114 24.6437C55.9543 28.4976 57.5508 30.8979 59.3614 31.5064Z" fill="#81CFF4"/>
<defs>
<radialGradient id="paint0_radial_2033_3146" cx="0" cy="0" r="1" gradientUnits="userSpaceOnUse" gradientTransform="translate(52.2202 28.1491) scale(42.9921 44.1504)">
<stop offset="0.301" stop-color="#7E0000"/>
<stop offset="1" stop-color="#E20000"/>
</radialGradient>
<radialGradient id="paint1_radial_2033_3146" cx="0" cy="0" r="1" gradientUnits="userSpaceOnUse" gradientTransform="translate(9.52032 16.4928) scale(34.7502 35.6864)">
<stop stop-color="#FBCA8C"/>
<stop offset="1" stop-color="#E20613"/>
</radialGradient>
<radialGradient id="paint2_radial_2033_3146" cx="0" cy="0" r="1" gradientUnits="userSpaceOnUse" gradientTransform="translate(38.6907 0.127418) scale(20.4005 20.9502)">
<stop stop-color="#FBCA8C"/>
<stop offset="1" stop-color="#E20613"/>
</radialGradient>
<linearGradient id="paint3_linear_2033_3146" x1="55.1674" y1="22.9523" x2="80.1333" y2="22.9523" gradientUnits="userSpaceOnUse">
<stop stop-color="#2664F3"/>
<stop offset="1" stop-color="#0019A7"/>
</linearGradient>
</defs>
</svg>
