<svg width="309" height="61" viewBox="0 0 309 61" fill="none" xmlns="http://www.w3.org/2000/svg">
<path d="M23.2116 28.6647H8.09668L5.9053 34.6659H0.286377L12.5356 0.33252H18.7164L31.0781 34.6659H25.403L23.2116 28.6647ZM21.3011 23.5292L15.626 7.77623L9.95092 23.5292H21.3011ZM55.9699 11.0653V34.7236H50.6319V16.5471H42.8216C42.4845 24.2793 40.5179 29.7611 36.0789 35.6468L31.6961 32.4732C36.4722 25.2026 37.7646 19.6054 37.3151 11.0653H55.9699ZM80.0189 26.1258C80.0189 31.8961 75.7485 34.7236 69.6801 34.7236H60.746V11.0653H66.0839V17.5858H69.6801C76.6475 17.5281 80.0189 20.4709 80.0189 26.1258ZM74.9618 26.1258C74.9618 23.2407 73.3324 21.9135 69.3991 21.9135H66.0278V30.2227H69.3991C73.3324 30.2227 74.9618 28.9533 74.9618 26.1258ZM99.5727 16.2009H91.65V34.6659H86.312V16.2009H78.5018V11.0076H99.5727V16.2009ZM113.114 30.9729C115.587 30.9729 118.059 29.4726 119.127 27.3376L124.015 28.607C122.161 33.0502 118.059 35.5314 113.002 35.5314C106.709 35.5314 101.427 32.4155 100.528 24.9717C99.7413 16.1432 104.517 9.96894 112.496 9.96894C121.093 9.96894 124.858 16.0278 124.071 24.9717H105.697C106.54 28.8379 109.069 30.9729 113.114 30.9729ZM105.585 21.1056H119.127C119.07 17.0087 116.149 14.1813 112.384 14.1236C108.788 14.1236 106.034 17.0087 105.585 21.1056ZM151.548 22.8367C151.548 31.9538 146.828 35.6468 141.04 35.6468C138.118 35.6468 135.365 34.0311 133.399 31.3768V47.1297H128.061V11.0076H133.399V14.2967C135.365 11.7 138.118 10.0266 141.04 10.0266C146.828 10.0843 151.548 13.7196 151.548 22.8367ZM146.547 22.8367C146.547 17.1241 143.625 14.816 140.085 14.816C136.545 14.816 133.736 17.1241 133.736 22.8367C133.736 28.607 136.545 30.9152 140.085 30.9152C143.513 30.9152 146.547 28.607 146.547 22.8367ZM177.676 11.0653V34.7236H172.338V24.7409H160.763V34.7236H155.425V11.0653H160.763V20.1824H172.338V11.0653H177.676ZM204.59 21.7981V34.6659H199.252V30.1073C196.949 33.5695 192.51 35.5314 188.857 35.5314C183.913 35.4737 181.497 31.3768 181.497 28.1454C181.497 23.2407 185.317 20.5863 189.419 20.5863H199.252C199.14 18.2782 197.96 14.2967 193.24 14.2967C188.127 14.2967 186.835 18.3359 186.835 18.3359L182.508 17.1818C183.632 12.681 187.958 9.96894 193.184 9.96894C200.095 9.96894 204.59 14.2967 204.59 21.7981ZM199.14 24.2216H194.42C190.262 24.2216 187.34 24.5101 186.835 27.6838C186.61 29.2995 187.284 30.8575 190.262 30.9729C194.42 30.9152 199.14 27.6838 199.14 24.2216ZM228.021 16.2009H220.099V34.6659H214.761V16.2009H206.95V11.0076H228.021V16.2009ZM254.318 11.0653V34.7236H248.98V18.8552L237.63 34.6659H232.179V11.0076H237.517V26.6451L248.811 11.0076H254.318V11.0653ZM259.038 11.0653C259.038 11.0653 263.982 10.0266 272.017 10.0266C274.546 10.0266 280.783 10.7768 280.783 16.7779C280.783 18.7975 279.884 20.4132 278.648 21.221C280.614 21.9135 282.3 24.1062 282.3 27.2799C282.3 34.0311 276.906 34.7236 273.534 34.7236H259.038V11.0653ZM270.388 19.7785C272.86 19.7785 275.445 19.3745 275.445 17.1818C275.445 14.8737 272.523 14.2967 270.669 14.2967C266.679 14.2967 264.376 14.9891 264.376 14.9891V19.7785H270.388ZM272.074 30.3958C274.546 30.3958 277.131 29.9919 277.131 27.1068C277.131 24.1639 274.602 23.76 272.074 23.76H264.376V30.3958H272.074ZM307.754 21.7981V34.6659H302.416V30.1073C300.112 33.5695 295.673 35.5314 292.021 35.5314C287.076 35.4737 284.66 31.3768 284.66 28.1454C284.66 23.2407 288.481 20.5863 292.583 20.5863H302.416C302.303 18.2782 301.123 14.2967 296.404 14.2967C291.29 14.2967 289.998 18.3359 289.998 18.3359L285.671 17.1818C286.795 12.681 291.122 9.96894 296.347 9.96894C303.259 9.96894 307.754 14.2967 307.754 21.7981ZM302.303 24.2216H297.583C293.426 24.2216 290.504 24.5101 289.998 27.6838C289.773 29.2995 290.447 30.8575 293.425 30.9729C297.583 30.9152 302.303 27.6838 302.303 24.2216Z" fill="#F3F8FB"/>
<path d="M178.968 54.3429L178.125 60.4017H175.878L176.72 54.2275C176.889 52.8426 176.271 52.1501 175.035 52.1501C173.799 52.1501 173.012 53.0157 172.787 54.4006V54.5737L172.562 56.1317L171.944 60.4594H169.697L170.54 54.2852C170.652 52.9003 170.146 52.2079 169.023 52.2079C167.618 52.2079 166.775 53.0157 166.55 54.516L166.325 56.1317L165.707 60.4594H163.46L164.808 50.4768H167.056L166.887 51.6308C167.562 50.7076 168.629 50.0151 169.753 50.0151C171.102 50.0151 172.113 50.7076 172.562 51.9193C173.293 50.7653 174.417 50.0151 175.765 50.0151C178.181 50.0151 179.305 51.6885 178.968 54.3429Z" fill="#F3F8FB"/>
<path d="M188.576 56.3049H182.901C182.958 57.9205 183.857 58.8438 185.542 58.8438C186.666 58.8438 187.846 58.1514 188.408 57.2281L190.431 57.9205C189.419 59.767 187.565 60.748 185.486 60.748C182.789 60.748 180.654 59.3631 180.71 56.1318C180.879 52.4965 183.182 49.9575 186.497 49.9575C190.15 49.9575 191.498 52.6119 190.655 56.3626L188.576 56.3049ZM188.801 54.6892C189.026 52.9004 188.015 51.7463 186.497 51.7463C184.924 51.7463 183.576 52.9581 183.126 54.6892H188.801Z" fill="#F3F8FB"/>
<path d="M204.085 45.1104L202.006 60.4017H199.758L199.983 58.9591C199.028 60.0555 197.735 60.7479 196.499 60.7479C194.027 60.7479 192.285 59.1899 192.791 55.3815C193.296 51.5154 195.544 49.9574 198.016 49.9574C199.252 49.9574 200.32 50.6498 200.994 51.7462L201.893 45.1104H204.085ZM200.264 55.3815C200.601 52.958 199.59 51.977 198.072 51.977C196.611 51.977 195.207 52.958 194.87 55.3815C194.532 57.805 195.6 58.786 197.117 58.786C198.634 58.786 199.927 57.805 200.264 55.3815Z" fill="#F3F8FB"/>
<path d="M206.22 50.4194H208.58L207.231 60.402H204.871L206.22 50.4194ZM206.669 46.8418C206.782 46.034 207.344 45.5146 208.13 45.5146C208.861 45.5146 209.254 46.034 209.198 46.8418C209.086 47.6497 208.524 48.2267 207.737 48.2267C206.95 48.169 206.557 47.6497 206.669 46.8418Z" fill="#F3F8FB"/>
<path d="M210.209 55.2085C210.715 51.4578 213.131 49.9575 215.828 49.9575C217.963 49.9575 219.649 50.9385 220.155 53.0158L218.132 53.4774C218.132 53.4774 217.851 51.9771 216.053 51.9771C213.974 51.9771 212.738 53.1889 212.401 55.5547C212.12 57.7474 212.906 58.7861 214.817 58.7861C216.896 58.7861 217.682 57.1704 217.682 57.1704L219.593 57.8628C218.525 59.9402 216.671 60.748 214.648 60.748C211.782 60.748 209.647 59.1323 210.209 55.2085Z" fill="#F3F8FB"/>
<path d="M232.123 50.4191L230.775 60.4018H228.527L228.752 58.9592C227.797 60.0556 226.504 60.748 225.268 60.748C222.796 60.748 221.054 59.19 221.56 55.3816C222.065 51.5155 224.313 49.9575 226.785 49.9575C228.021 49.9575 229.089 50.65 229.763 51.7463L229.932 50.4191H232.123ZM229.033 55.3816C229.37 52.9581 228.358 51.9771 226.841 51.9771C225.38 51.9771 223.976 52.9581 223.639 55.3816C223.301 57.8051 224.369 58.7861 225.886 58.7861C227.403 58.7861 228.696 57.8051 229.033 55.3816Z" fill="#F3F8FB"/>
<path d="M235.719 45.1104H238.191L236.112 60.4017H233.64L235.719 45.1104Z" fill="#F3F8FB"/>
<path d="M244.429 55.2085C244.934 51.4578 247.35 49.9575 250.047 49.9575C252.183 49.9575 253.868 50.9385 254.374 53.0158L252.351 53.4774C252.351 53.4774 252.07 51.9771 250.272 51.9771C248.193 51.9771 246.957 53.1889 246.62 55.5547C246.339 57.7474 247.126 58.7861 249.036 58.7861C251.115 58.7861 251.902 57.1704 251.902 57.1704L253.812 57.8628C252.745 59.9402 250.89 60.748 248.867 60.748C246.002 60.748 243.867 59.1323 244.429 55.2085Z" fill="#F3F8FB"/>
<path d="M263.252 56.3049H257.577C257.633 57.9205 258.532 58.8438 260.218 58.8438C261.341 58.8438 262.521 58.1514 263.083 57.2281L265.106 57.9205C264.095 59.767 262.24 60.748 260.161 60.748C257.464 60.748 255.329 59.3631 255.385 56.1318C255.554 52.4965 257.858 49.9575 261.173 49.9575C264.825 49.9575 266.174 52.6119 265.331 56.3626L263.252 56.3049ZM263.477 54.6892C263.701 52.9004 262.69 51.7463 261.173 51.7463C259.6 51.7463 258.251 52.9581 257.801 54.6892H263.477Z" fill="#F3F8FB"/>
<path d="M277.636 54.6892L276.85 60.4018H274.602L275.276 55.7278C275.614 53.2466 275.052 52.1502 273.31 52.1502C271.568 52.1502 270.332 53.5351 270.051 55.9586C270.051 55.9586 270.051 56.0163 270.051 56.1318L269.489 60.3441H267.241L268.59 50.3614H270.837L270.613 52.0348C271.456 50.7654 272.692 49.9575 274.04 49.9575C276.4 50.0152 277.973 52.0925 277.636 54.6892Z" fill="#F3F8FB"/>
<path d="M283.649 55.8431C283.368 58.0935 284.098 58.6128 285.334 58.4397L285.109 60.7478C284.885 60.7478 284.716 60.8055 284.604 60.8055C282.356 60.8055 280.895 59.363 281.345 56.1316L281.85 52.6117H279.603L279.884 50.419C281.907 50.419 282.188 50.1882 282.918 47.7646H284.716L284.379 50.419H286.851L286.57 52.6117H284.098L283.649 55.8431Z" fill="#F3F8FB"/>
<path d="M295.448 56.3049H289.773C289.829 57.9205 290.728 58.8438 292.414 58.8438C293.538 58.8438 294.718 58.1514 295.28 57.2281L297.302 57.9205C296.291 59.767 294.437 60.748 292.358 60.748C289.661 60.748 287.526 59.3631 287.582 56.1318C287.75 52.4965 290.054 49.9575 293.369 49.9575C297.022 49.9575 298.37 52.6119 297.527 56.3626L295.448 56.3049ZM295.673 54.6892C295.898 52.9004 294.886 51.7463 293.369 51.7463C291.796 51.7463 290.447 52.9581 289.998 54.6892H295.673Z" fill="#F3F8FB"/>
<path d="M308.259 50.3038L306.967 52.4966C306.967 52.4966 306.293 52.2081 305.281 52.3235C303.82 52.4966 302.584 53.4775 302.191 55.7856L301.573 60.4019H299.325L300.674 50.4193H302.921L302.697 51.8618C304.158 50.1307 306.518 49.496 308.259 50.3038Z" fill="#F3F8FB"/>
</svg>
