<svg width="280" height="48" viewBox="0 0 280 48" fill="none" xmlns="http://www.w3.org/2000/svg">
<path d="M65.1921 43.8963L57.4287 18.567L51.8298 14.0629H41.4865C41.4876 14.0626 51.951 10.0514 54.1703 7.93611L53.0933 4.42147C52.4363 2.2776 50.4565 0.8139 48.2146 0.8139H31.4013C29.4622 0.8139 27.6897 1.90956 26.8223 3.64386L21.6126 14.0629H11.5201C9.58552 14.0629 7.81704 15.156 6.95187 16.8864L0.272556 30.245C-0.575386 31.9412 0.657831 33.9368 2.55426 33.9368H11.676L6.89707 43.4943C6.04913 45.1902 7.28235 47.1858 9.17878 47.1858H21.7714C23.7042 47.1858 25.471 46.0938 26.3356 44.3652L31.5498 33.9368H42.9584L45.3389 43.3359C45.912 45.6001 47.9497 47.1858 50.2856 47.1858H62.7503C64.4617 47.1858 65.6878 45.5343 65.1921 43.8963Z" fill="#E60000"/>
<path d="M39.9515 14.0634C38.3121 15.5121 36.758 17.3515 34.9644 19.6358C34.9644 25.253 37.298 30.3223 41.0446 33.9372H42.9571L43.4613 35.9283C46.6858 38.1849 50.6075 39.5127 54.8416 39.5127C57.8563 39.5127 60.7119 38.8382 63.2724 37.6375L62.9818 36.6906C62.0979 33.8062 61.7319 30.8034 61.6895 27.7867C61.6734 26.6255 61.3486 25.91 61.3486 25.91L59.8321 26.4134L57.4272 18.5672L51.8286 14.0634H39.9515Z" fill="url(#paint0_radial_2002_313)"/>
<mask id="mask0_2002_313" style="mask-type:luminance" maskUnits="userSpaceOnUse" x="2" y="15" width="26" height="18">
<path d="M2.43579 15.9395H27.9091V32.2639H2.43579V15.9395Z" fill="white"/>
</mask>
<g mask="url(#mask0_2002_313)">
<g opacity="0.75">
<path d="M3.57088 32.2639C9.05708 23.615 17.9266 17.7201 27.909 15.9776C27.9067 15.9527 27.9078 15.9643 27.9059 15.9395H12.2672C10.8157 15.9395 9.48868 16.7597 8.83959 18.0579L2.55685 30.6234C2.18005 31.3773 2.72802 32.2639 3.57088 32.2639Z" fill="url(#paint1_radial_2002_313)"/>
</g>
</g>
<mask id="mask1_2002_313" style="mask-type:luminance" maskUnits="userSpaceOnUse" x="24" y="3" width="16" height="10">
<path d="M24.8043 3.01858H39.946V12.4629H24.8043V3.01858Z" fill="white"/>
</mask>
<g mask="url(#mask1_2002_313)">
<g opacity="0.75">
<path d="M25.864 12.4629C29.038 7.45913 34.1694 4.04871 39.9446 3.04062C39.9435 3.02621 39.944 3.03327 39.9429 3.01858H31.897C30.4432 3.01858 29.1145 3.83998 28.4643 5.14014L24.8028 12.4629H25.864Z" fill="url(#paint2_radial_2002_313)"/>
</g>
</g>
<path d="M62.8377 19.6357C62.8377 27.3327 56.5979 33.5723 48.9009 33.5723C41.2039 33.5723 34.9644 27.3327 34.9644 19.6357C34.9644 11.9387 41.2039 5.69919 48.9009 5.69919C56.5979 5.69919 62.8377 11.9387 62.8377 19.6357Z" fill="white"/>
<path d="M39.7454 15.5535C39.442 16.223 39.2124 16.9232 39.063 17.6296C38.395 20.8804 39.9047 22.9497 41.5899 23.4977C41.9006 23.5988 42.2325 23.6497 42.5762 23.6497C43.5154 23.6497 45.8993 23.2133 47.7305 19.171C50.2066 13.7079 53.704 13.1182 55.0923 13.1182C55.4736 13.1182 55.8521 13.158 56.217 13.2371C56.3681 13.2701 56.5156 13.3057 56.6599 13.3444C55.6897 12.1544 54.4542 11.1969 53.032 10.5526C51.722 9.95858 50.3337 9.65776 48.9055 9.65776C44.9633 9.65776 41.3678 11.972 39.7454 15.5535Z" fill="url(#paint3_linear_2002_313)"/>
<path d="M48.8999 29.6135C47.4718 29.6141 46.0829 29.3127 44.7731 28.719C43.3507 28.0744 42.1149 27.1169 41.145 25.9269C41.2893 25.9658 41.4365 26.0017 41.5884 26.0345C41.9525 26.1133 42.331 26.1534 42.7135 26.1534C44.1017 26.1534 47.5986 25.5636 50.0741 20.1009C51.9055 16.0589 54.2892 15.6225 55.2292 15.6225C55.5727 15.6225 55.904 15.673 56.215 15.7744C57.9002 16.3224 59.4093 18.3923 58.7419 21.6425C58.5925 22.3492 58.3628 23.0492 58.0595 23.7183C56.437 27.2996 52.8416 29.6135 48.8999 29.6135Z" fill="#FFD700"/>
<mask id="mask2_2002_313" style="mask-type:luminance" maskUnits="userSpaceOnUse" x="50" y="16" width="8" height="12">
<path d="M50.0217 16.5867H57.937V27.8972H50.0217V16.5867Z" fill="white"/>
</mask>
<g mask="url(#mask2_2002_313)">
<g opacity="0.649994">
<path d="M55.9154 16.6918C55.701 16.622 55.4697 16.5867 55.2279 16.5867C54.4748 16.5867 52.551 16.968 50.9512 20.499C50.6546 21.1532 50.3427 21.7416 50.0213 22.2743L50.0227 22.274C55.2078 14.8747 60.3141 22.4765 52.5041 27.8972C54.5412 27.0168 56.2329 25.4093 57.1797 23.3202C57.4534 22.7155 57.6613 22.0842 57.7954 21.4484C58.344 18.7786 57.2054 17.1109 55.9154 16.6918Z" fill="#FFF8C7"/>
</g>
</g>
<mask id="mask3_2002_313" style="mask-type:luminance" maskUnits="userSpaceOnUse" x="39" y="11" width="9" height="12">
<path d="M39.868 11.3743H47.7837V22.6848H39.868V11.3743Z" fill="white"/>
</mask>
<g mask="url(#mask3_2002_313)">
<g opacity="0.350006">
<path d="M41.8876 22.5797C42.102 22.6495 42.3336 22.6848 42.5754 22.6848C43.3281 22.6848 45.252 22.3035 46.8518 18.7725C47.1484 18.1183 47.4602 17.5299 47.782 16.9972L47.7803 16.9975C42.5952 24.3968 37.4891 16.7947 45.2991 11.3743C43.2618 12.2547 41.5701 13.8622 40.6236 15.9513C40.3496 16.556 40.1417 17.1873 40.0076 17.8231C39.4593 20.4929 40.5979 22.1603 41.8876 22.5797Z" fill="#81CFF4"/>
</g>
</g>
<path d="M90.4792 27.2682H80.4861L79.0319 31.2435H75.3032L83.4318 8.5H87.5335L95.7367 31.2435H91.9334L90.4792 27.2682ZM89.2114 23.828L85.4454 13.4309L81.6793 23.828H89.2114ZM112.255 15.6097V31.2817H108.713V19.2028H103.53C103.306 24.3249 102.001 27.9562 99.0553 31.8551L96.1469 29.7528C99.3163 24.9365 100.174 21.2287 99.8756 15.5715H112.255V15.6097ZM128.177 25.5863C128.177 29.4088 125.343 31.2817 121.316 31.2817H115.387V15.6097H118.93V19.9291H121.316C125.94 19.8909 128.177 21.8403 128.177 25.5863ZM124.858 25.5863C124.858 23.6751 123.777 22.7959 121.167 22.7959H118.93V28.3002H121.167C123.74 28.3002 124.858 27.4593 124.858 25.5863ZM141.19 19.0117H135.933V31.2435H132.39V19.0117H127.207V15.5715H141.19V19.0117ZM150.139 28.7972C151.78 28.7972 153.42 27.8033 154.129 26.389L157.373 27.23C156.142 30.1732 153.421 31.8169 150.065 31.8169C145.888 31.8169 142.383 29.7528 141.787 24.8218C141.265 18.9735 144.434 14.8835 149.729 14.8835C155.434 14.8835 157.932 18.897 157.41 24.8218H145.217C145.777 27.3829 147.454 28.7972 150.139 28.7972ZM145.143 22.2608H154.129C154.092 19.5469 152.153 17.6739 149.654 17.6356C147.268 17.6356 145.478 19.5469 145.143 22.2608ZM175.681 23.4075C175.681 29.447 172.549 31.8933 168.708 31.8933C166.769 31.8933 164.942 30.8231 163.637 29.0647V39.5H160.095V15.6097H163.637V17.7885C164.942 16.0684 166.769 14.9599 168.708 14.9599C172.512 14.9599 175.681 17.3681 175.681 23.4075ZM172.325 23.4075C172.325 19.6233 170.386 18.0943 168.037 18.0943C165.688 18.0943 163.824 19.6233 163.824 23.4075C163.824 27.23 165.688 28.7589 168.037 28.7589C170.312 28.7589 172.325 27.23 172.325 23.4075ZM192.983 15.6097V31.2817H189.44V24.6689H181.759V31.2817H178.217V15.6097H181.759V21.6492H189.44V15.6097H192.983ZM210.843 22.7195V31.2435H207.301V28.2238C205.772 30.5173 202.826 31.8169 200.403 31.8169C197.121 31.7787 195.518 29.0647 195.518 26.9242C195.518 23.6751 198.054 21.9168 200.776 21.9168H207.301C207.226 20.3878 206.443 17.7503 203.311 17.7503C199.918 17.7503 199.06 20.426 199.06 20.426L196.189 19.6615C196.935 16.68 199.806 14.8835 203.274 14.8835C207.86 14.8835 210.843 17.7503 210.843 22.7195ZM207.226 24.3249H204.094C201.335 24.3249 199.396 24.516 199.06 26.6184C198.911 27.6887 199.359 28.7207 201.335 28.7972C204.094 28.7589 207.226 26.6184 207.226 24.3249ZM226.392 19.0117H221.135V31.2435H217.592V19.0117H212.409V15.5715H226.392V19.0117ZM243.843 15.6097V31.2817H240.3V20.7318L232.768 31.2435H229.151V15.5715H232.694V25.9303L240.189 15.5715H243.843V15.6097ZM246.975 15.6097C246.975 15.6097 250.256 14.9217 255.588 14.9217C257.266 14.9217 261.405 15.4186 261.405 19.394C261.405 20.7318 260.809 21.8021 259.988 22.3372C261.293 22.7959 262.412 24.2485 262.412 26.3508C262.412 30.8231 258.832 31.2817 256.595 31.2817H246.975V15.6097ZM254.544 21.3816C256.185 21.3816 257.9 21.1141 257.9 19.6615C257.9 18.1326 255.961 17.7503 254.731 17.7503C252.083 17.7503 250.554 18.209 250.554 18.209V21.3816H254.544ZM255.626 28.3767C257.266 28.3767 258.981 28.1091 258.981 26.1979C258.981 24.2485 257.304 23.9809 255.626 23.9809H250.517V28.3767H255.626ZM279.303 22.7195V31.2435H275.761V28.2238C274.232 30.5173 271.286 31.8169 268.863 31.8169C265.581 31.7787 263.978 29.0647 263.978 26.9242C263.978 23.6751 266.514 21.9168 269.236 21.9168H275.761C275.686 20.3878 274.903 17.7503 271.771 17.7503C268.378 17.7503 267.52 20.426 267.52 20.426L264.649 19.6615C265.395 16.68 268.266 14.8835 271.734 14.8835C276.32 14.8835 279.303 17.7503 279.303 22.7195ZM275.686 24.3249H272.554C269.795 24.3249 267.856 24.516 267.52 26.6184C267.371 27.6887 267.819 28.7207 269.795 28.7972C272.554 28.7589 275.686 26.6184 275.686 24.3249Z" fill="url(#paint4_linear_2002_313)"/>
<defs>
<radialGradient id="paint0_radial_2002_313" cx="0" cy="0" r="1" gradientUnits="userSpaceOnUse" gradientTransform="translate(36.8035 20.2531) rotate(33.2317) scale(30.5811 30.5811)">
<stop stop-color="#7E0000"/>
<stop offset="0.30104" stop-color="#7E0000"/>
<stop offset="1" stop-color="#E20000"/>
</radialGradient>
<radialGradient id="paint1_radial_2002_313" cx="0" cy="0" r="1" gradientUnits="userSpaceOnUse" gradientTransform="translate(6.43191 12.1795) rotate(32.3447) scale(24.7184)">
<stop stop-color="#FBCA8C"/>
<stop offset="1" stop-color="#E20613"/>
</radialGradient>
<radialGradient id="paint2_radial_2002_313" cx="0" cy="0" r="1" gradientUnits="userSpaceOnUse" gradientTransform="translate(27.1783 0.843298) rotate(32.3447) scale(14.5113 14.5113)">
<stop stop-color="#FBCA8C"/>
<stop offset="1" stop-color="#E20613"/>
</radialGradient>
<linearGradient id="paint3_linear_2002_313" x1="38.9012" y1="16.6538" x2="56.6599" y2="16.6538" gradientUnits="userSpaceOnUse">
<stop stop-color="#2664F3"/>
<stop offset="1" stop-color="#0019A7"/>
</linearGradient>
<linearGradient id="paint4_linear_2002_313" x1="75.2852" y1="24.0062" x2="279.312" y2="24.0062" gradientUnits="userSpaceOnUse">
<stop stop-color="#2664F3"/>
<stop offset="1" stop-color="#0019A7"/>
</linearGradient>
</defs>
</svg>
